<svg width="16" height="16" viewBox="0 0 16 16" fill="none" xmlns="http://www.w3.org/2000/svg">
<path fill-rule="evenodd" clip-rule="evenodd" d="M8.54188 1.11111C8.197 0.957756 7.80329 0.957756 7.45841 1.11111C7.19206 1.22954 7.01904 1.43815 6.89864 1.60814C6.78026 1.77526 6.65352 1.99421 6.51414 2.23501L1.0027 11.7548C0.862763 11.9964 0.735594 12.2161 0.649367 12.4024C0.561734 12.5919 0.466664 12.8465 0.496963 13.1371C0.53617 13.5132 0.733198 13.8549 1.03901 14.0773C1.27534 14.2491 1.54334 14.2944 1.75117 14.3135C1.95567 14.3322 2.20945 14.3322 2.4887 14.3322H13.5116C13.7908 14.3322 14.0446 14.3322 14.2491 14.3135C14.457 14.2944 14.725 14.2491 14.9613 14.0773C15.2671 13.8549 15.4641 13.5132 15.5033 13.1371C15.5336 12.8465 15.4386 12.5919 15.3509 12.4024C15.2647 12.2161 15.1375 11.9965 14.9976 11.7548L9.48614 2.23498C9.34676 1.9942 9.22002 1.77526 9.10165 1.60814C8.98125 1.43815 8.80823 1.22954 8.54188 1.11111ZM8.66683 5.99886C8.66683 5.63067 8.36835 5.33219 8.00016 5.33219C7.63197 5.33219 7.3335 5.63067 7.3335 5.99886V8.66553C7.3335 9.03372 7.63197 9.33219 8.00016 9.33219C8.36835 9.33219 8.66683 9.03372 8.66683 8.66553V5.99886ZM8.00016 10.6655C7.63197 10.6655 7.3335 10.964 7.3335 11.3322C7.3335 11.7004 7.63197 11.9989 8.00016 11.9989H8.00683C8.37502 11.9989 8.6735 11.7004 8.6735 11.3322C8.6735 10.964 8.37502 10.6655 8.00683 10.6655H8.00016Z" fill="#DC6803"/>
</svg>
