<svg width="52" height="52" viewBox="0 0 52 52" fill="none" xmlns="http://www.w3.org/2000/svg">
<g filter="url(#filter0_dii_3825_29876)">
<path d="M2 11C2 5.47715 6.47715 1 12 1H40C45.5229 1 50 5.47715 50 11V39C50 44.5229 45.5228 49 40 49H12C6.47715 49 2 44.5228 2 39V11Z" fill="white"/>
<path d="M2.5 11C2.5 5.75329 6.75329 1.5 12 1.5H40C45.2467 1.5 49.5 5.75329 49.5 11V39C49.5 44.2467 45.2467 48.5 40 48.5H12C6.75329 48.5 2.5 44.2467 2.5 39V11Z" stroke="#E9EAEB"/>
<path fill-rule="evenodd" clip-rule="evenodd" d="M25.8253 15.0311C25.9415 15.0209 26.0585 15.0209 26.1747 15.0311C26.3084 15.0428 26.436 15.0713 26.5372 15.094L33.9907 16.7504C34.1911 16.7949 34.3903 16.8391 34.5587 16.8897C34.7467 16.9462 34.9607 17.0283 35.1691 17.1785C35.4634 17.3905 35.6946 17.6787 35.8377 18.012C35.9391 18.248 35.9728 18.4747 35.9872 18.6704C36.0001 18.8458 36 19.0499 36 19.2552V20.4311C36 20.6834 36.0001 20.9292 35.9831 21.1373C35.9644 21.3659 35.9203 21.6356 35.782 21.907C35.5903 22.2833 35.2843 22.5893 34.908 22.7811C34.6366 22.9194 34.3668 22.9634 34.1382 22.9821C34.0938 22.9857 34.0476 22.9886 34 22.9908V29.0072C34.0476 29.0095 34.0938 29.0123 34.1382 29.016C34.3668 29.0347 34.6366 29.0787 34.908 29.217C35.2843 29.4088 35.5903 29.7147 35.782 30.091C35.9203 30.3625 35.9644 30.6322 35.9831 30.8608C36.0001 31.0689 36 31.3147 36 31.567V32.4311C36 32.6834 36.0001 32.9292 35.9831 33.1373C35.9644 33.3659 35.9203 33.6356 35.782 33.907C35.5903 34.2833 35.2843 34.5893 34.908 34.781C34.6366 34.9193 34.3668 34.9634 34.1382 34.9821C33.9301 34.9991 33.6843 34.9991 33.4319 34.999H18.5681C18.3157 34.9991 18.0699 34.9991 17.8618 34.9821C17.6332 34.9634 17.3634 34.9193 17.092 34.781C16.7157 34.5893 16.4097 34.2833 16.218 33.907C16.0797 33.6356 16.0356 33.3659 16.017 33.1373C15.9999 32.9291 16 32.6833 16 32.4309L16 31.5671C16 31.3147 15.9999 31.069 16.017 30.8608C16.0356 30.6322 16.0797 30.3625 16.218 30.091C16.4097 29.7147 16.7157 29.4088 17.092 29.217C17.3634 29.0787 17.6332 29.0347 17.8618 29.016C17.9062 29.0123 17.9524 29.0095 18 29.0072V22.9908C17.9524 22.9886 17.9062 22.9857 17.8618 22.9821C17.6332 22.9634 17.3634 22.9194 17.092 22.7811C16.7157 22.5893 16.4097 22.2833 16.218 21.907C16.0797 21.6356 16.0356 21.3659 16.017 21.1373C15.9999 20.9291 16 20.6833 16 20.4309L16 19.2552C16 19.0499 16 18.8458 16.0128 18.6704C16.0272 18.4747 16.0609 18.248 16.1623 18.012C16.3055 17.6787 16.5366 17.3905 16.8309 17.1785C17.0393 17.0283 17.2533 16.9462 17.4413 16.8897C17.6097 16.8391 17.8089 16.7949 18.0093 16.7504L25.4628 15.094C25.5641 15.0713 25.6916 15.0428 25.8253 15.0311ZM20 22.999V28.999H22.5V22.999H20ZM24.5 22.999V28.999H27.5V22.999L24.5 22.999ZM29.5 22.999V28.999H32V22.999H29.5Z" fill="black"/>
</g>
<defs>
<filter id="filter0_dii_3825_29876" x="0" y="0" width="52" height="52" filterUnits="userSpaceOnUse" color-interpolation-filters="sRGB">
<feFlood flood-opacity="0" result="BackgroundImageFix"/>
<feColorMatrix in="SourceAlpha" type="matrix" values="0 0 0 0 0 0 0 0 0 0 0 0 0 0 0 0 0 0 127 0" result="hardAlpha"/>
<feOffset dy="1"/>
<feGaussianBlur stdDeviation="1"/>
<feComposite in2="hardAlpha" operator="out"/>
<feColorMatrix type="matrix" values="0 0 0 0 0.0392157 0 0 0 0 0.0496732 0 0 0 0 0.0705882 0 0 0 0.05 0"/>
<feBlend mode="normal" in2="BackgroundImageFix" result="effect1_dropShadow_3825_29876"/>
<feBlend mode="normal" in="SourceGraphic" in2="effect1_dropShadow_3825_29876" result="shape"/>
<feColorMatrix in="SourceAlpha" type="matrix" values="0 0 0 0 0 0 0 0 0 0 0 0 0 0 0 0 0 0 127 0" result="hardAlpha"/>
<feOffset dy="-2"/>
<feComposite in2="hardAlpha" operator="arithmetic" k2="-1" k3="1"/>
<feColorMatrix type="matrix" values="0 0 0 0 0.0392157 0 0 0 0 0.0496732 0 0 0 0 0.0705882 0 0 0 0.05 0"/>
<feBlend mode="normal" in2="shape" result="effect2_innerShadow_3825_29876"/>
<feColorMatrix in="SourceAlpha" type="matrix" values="0 0 0 0 0 0 0 0 0 0 0 0 0 0 0 0 0 0 127 0" result="hardAlpha"/>
<feMorphology radius="1" operator="erode" in="SourceAlpha" result="effect3_innerShadow_3825_29876"/>
<feOffset/>
<feComposite in2="hardAlpha" operator="arithmetic" k2="-1" k3="1"/>
<feColorMatrix type="matrix" values="0 0 0 0 0.0392157 0 0 0 0 0.0496732 0 0 0 0 0.0705882 0 0 0 0.18 0"/>
<feBlend mode="normal" in2="effect2_innerShadow_3825_29876" result="effect3_innerShadow_3825_29876"/>
</filter>
</defs>
</svg>
