<svg width="20" height="20" viewBox="0 0 20 20" fill="none" xmlns="http://www.w3.org/2000/svg">
<path fill-rule="evenodd" clip-rule="evenodd" d="M9.99967 0.833252C4.93706 0.833252 0.833008 4.93731 0.833008 9.99992C0.833008 15.0625 4.93706 19.1666 9.99967 19.1666C15.0623 19.1666 19.1663 15.0625 19.1663 9.99992C19.1663 4.93731 15.0623 0.833252 9.99967 0.833252ZM14.3389 8.08917C14.6644 7.76374 14.6644 7.2361 14.3389 6.91066C14.0135 6.58523 13.4859 6.58523 13.1604 6.91066L8.74967 11.3214L6.83893 9.41066C6.51349 9.08523 5.98586 9.08523 5.66042 9.41066C5.33498 9.7361 5.33498 10.2637 5.66042 10.5892L8.16042 13.0892C8.48585 13.4146 9.01349 13.4146 9.33893 13.0892L14.3389 8.08917Z" fill="#079455"/>
</svg>
