<svg width="16" height="16" viewBox="0 0 16 16" fill="none" xmlns="http://www.w3.org/2000/svg">
<path d="M14.6663 6.66658H1.33301M7.33301 9.33325H3.99967M1.33301 5.46659L1.33301 10.5333C1.33301 11.28 1.33301 11.6534 1.47833 11.9386C1.60616 12.1895 1.81014 12.3934 2.06102 12.5213C2.34624 12.6666 2.7196 12.6666 3.46634 12.6666L12.533 12.6666C13.2797 12.6666 13.6531 12.6666 13.9383 12.5213C14.1892 12.3934 14.3932 12.1895 14.521 11.9386C14.6663 11.6534 14.6663 11.28 14.6663 10.5333V5.46659C14.6663 4.71985 14.6663 4.34648 14.521 4.06127C14.3932 3.81038 14.1892 3.60641 13.9383 3.47858C13.6531 3.33325 13.2797 3.33325 12.533 3.33325L3.46634 3.33325C2.7196 3.33325 2.34624 3.33325 2.06102 3.47858C1.81014 3.60641 1.60616 3.81038 1.47833 4.06126C1.33301 4.34648 1.33301 4.71985 1.33301 5.46659Z" stroke="#414651" stroke-width="1.25" stroke-linecap="round" stroke-linejoin="round"/>
</svg>
