<svg width="18" height="18" viewBox="0 0 18 18" fill="none" xmlns="http://www.w3.org/2000/svg">
<path d="M15.75 3.75L7.5 3.75M15.75 14.25L7.5 14.25M15.75 9L7.5 9M4.5 3.75C4.5 4.37132 3.99632 4.875 3.375 4.875C2.75368 4.875 2.25 4.37132 2.25 3.75C2.25 3.12868 2.75368 2.625 3.375 2.625C3.99632 2.625 4.5 3.12868 4.5 3.75ZM4.5 14.25C4.5 14.8713 3.99632 15.375 3.375 15.375C2.75368 15.375 2.25 14.8713 2.25 14.25C2.25 13.6287 2.75368 13.125 3.375 13.125C3.99632 13.125 4.5 13.6287 4.5 14.25ZM4.5 9C4.5 9.62132 3.99632 10.125 3.375 10.125C2.75368 10.125 2.25 9.62132 2.25 9C2.25 8.37868 2.75368 7.875 3.375 7.875C3.99632 7.875 4.5 8.37868 4.5 9Z" stroke="#717680" stroke-width="1.45" stroke-linecap="round" stroke-linejoin="round"/>
</svg>
