<svg width="20" height="20" viewBox="0 0 20 20" fill="none" xmlns="http://www.w3.org/2000/svg">
<g clip-path="url(#clip0_3428_238199)">
<path d="M6.6665 11.667C6.6665 11.667 7.9165 13.3337 9.99984 13.3337C12.0832 13.3337 13.3332 11.667 13.3332 11.667M12.4998 7.50033H12.5082M7.49984 7.50033H7.50817M18.3332 10.0003C18.3332 14.6027 14.6022 18.3337 9.99984 18.3337C5.39746 18.3337 1.6665 14.6027 1.6665 10.0003C1.6665 5.39795 5.39746 1.66699 9.99984 1.66699C14.6022 1.66699 18.3332 5.39795 18.3332 10.0003ZM12.9165 7.50033C12.9165 7.73044 12.73 7.91699 12.4998 7.91699C12.2697 7.91699 12.0832 7.73044 12.0832 7.50033C12.0832 7.27021 12.2697 7.08366 12.4998 7.08366C12.73 7.08366 12.9165 7.27021 12.9165 7.50033ZM7.9165 7.50033C7.9165 7.73044 7.72996 7.91699 7.49984 7.91699C7.26972 7.91699 7.08317 7.73044 7.08317 7.50033C7.08317 7.27021 7.26972 7.08366 7.49984 7.08366C7.72996 7.08366 7.9165 7.27021 7.9165 7.50033Z" stroke="#717680" stroke-width="1.66667" stroke-linecap="round" stroke-linejoin="round"/>
</g>
<defs>
<clipPath id="clip0_3428_238199">
<rect width="20" height="20" fill="white"/>
</clipPath>
</defs>
</svg>
