<svg width="21" height="20" viewBox="0 0 21 20" fill="none" xmlns="http://www.w3.org/2000/svg">
<path d="M13.1666 2.04947C12.3774 1.8016 11.5376 1.66797 10.6666 1.66797C6.06421 1.66797 2.33325 5.39893 2.33325 10.0013C2.33325 14.6037 6.06421 18.3346 10.6666 18.3346C15.269 18.3346 18.9999 14.6037 18.9999 10.0013C18.9999 8.57186 18.64 7.22649 18.0059 6.05084M14.8333 4.79297H14.8374M9.41663 18.2415L9.41672 16.4054C9.41672 16.306 9.4523 16.2098 9.51703 16.1343L11.5885 13.7175C11.7587 13.5189 11.706 13.2143 11.4789 13.0845L9.0987 11.7244C9.03403 11.6875 8.98045 11.6338 8.94353 11.5692L7.39197 8.85016C7.31122 8.70865 7.1554 8.62719 6.99311 8.64164L2.38674 9.05192M18.1666 5.0013C18.1666 6.84225 16.4999 8.33464 14.8333 10.0013C13.1666 8.33464 11.4999 6.84225 11.4999 5.0013C11.4999 3.16035 12.9923 1.66797 14.8333 1.66797C16.6742 1.66797 18.1666 3.16035 18.1666 5.0013ZM15.0416 4.79297C15.0416 4.90803 14.9483 5.0013 14.8333 5.0013C14.7182 5.0013 14.6249 4.90803 14.6249 4.79297C14.6249 4.67791 14.7182 4.58464 14.8333 4.58464C14.9483 4.58464 15.0416 4.67791 15.0416 4.79297Z" stroke="black" stroke-width="2" stroke-linecap="round" stroke-linejoin="round"/>
</svg>
