<svg width="10" height="10" viewBox="0 0 10 10" fill="none" xmlns="http://www.w3.org/2000/svg">
<path fill-rule="evenodd" clip-rule="evenodd" d="M5.00008 0.417969C2.46878 0.417969 0.416748 2.47 0.416748 5.0013C0.416748 7.53261 2.46878 9.58463 5.00008 9.58463C7.53139 9.58463 9.58341 7.53261 9.58341 5.0013C9.58341 2.47 7.53139 0.417969 5.00008 0.417969ZM5.00008 2.91797C4.76996 2.91797 4.58341 3.10452 4.58341 3.33464C4.58341 3.56475 4.76996 3.7513 5.00008 3.7513H5.00425C5.23437 3.7513 5.42091 3.56475 5.42091 3.33464C5.42091 3.10452 5.23437 2.91797 5.00425 2.91797H5.00008ZM5.41675 5.0013C5.41675 4.77118 5.2302 4.58463 5.00008 4.58463C4.76996 4.58463 4.58341 4.77118 4.58341 5.0013V6.66797C4.58341 6.89809 4.76996 7.08463 5.00008 7.08463C5.2302 7.08463 5.41675 6.89809 5.41675 6.66797V5.0013Z" fill="#DC6803"/>
</svg>
