<svg width="52" height="52" viewBox="0 0 52 52" fill="none" xmlns="http://www.w3.org/2000/svg">
<path d="M1.5 12C1.5 6.20101 6.20101 1.5 12 1.5H40C45.799 1.5 50.5 6.20101 50.5 12V40C50.5 45.799 45.799 50.5 40 50.5H12C6.20101 50.5 1.5 45.799 1.5 40V12Z" fill="black" fill-opacity="0.1"/>
<path d="M1.5 12C1.5 6.20101 6.20101 1.5 12 1.5H40C45.799 1.5 50.5 6.20101 50.5 12V40C50.5 45.799 45.799 50.5 40 50.5H12C6.20101 50.5 1.5 45.799 1.5 40V12Z" stroke="url(#paint0_linear_2921_111016)" stroke-width="3"/>
<path fill-rule="evenodd" clip-rule="evenodd" d="M16.8333 20.166C16.8333 18.7853 17.9526 17.666 19.3333 17.666H32.6666C34.0474 17.666 35.1666 18.7853 35.1666 20.166C35.1666 21.5467 34.0474 22.666 32.6666 22.666H19.3333C17.9526 22.666 16.8333 21.5467 16.8333 20.166Z" fill="url(#paint1_linear_2921_111016)"/>
<path fill-rule="evenodd" clip-rule="evenodd" d="M19.3333 24.3327C18.8731 24.3327 18.5 24.7058 18.5 25.166V29.5338C18.5 30.2046 18.5 30.7582 18.5368 31.2092C18.5751 31.6776 18.6572 32.1082 18.8633 32.5127C19.1829 33.1399 19.6928 33.6498 20.32 33.9694C20.7245 34.1754 21.155 34.2576 21.6235 34.2959C22.0744 34.3327 22.6281 34.3327 23.2989 34.3327H28.7011C29.3719 34.3327 29.9255 34.3327 30.3765 34.2959C30.8449 34.2576 31.2755 34.1754 31.6799 33.9694C32.3072 33.6498 32.8171 33.1399 33.1367 32.5127C33.3427 32.1082 33.4249 31.6776 33.4632 31.2092C33.5 30.7582 33.5 30.2046 33.5 29.5338V25.166C33.5 24.7058 33.1269 24.3327 32.6666 24.3327H19.3333ZM24.3333 26.8327C23.8731 26.8327 23.5 27.2058 23.5 27.666C23.5 28.1263 23.8731 28.4993 24.3333 28.4993H27.6666C28.1269 28.4993 28.5 28.1263 28.5 27.666C28.5 27.2058 28.1269 26.8327 27.6666 26.8327H24.3333Z" fill="url(#paint2_linear_2921_111016)"/>
<defs>
<linearGradient id="paint0_linear_2921_111016" x1="26" y1="2" x2="26" y2="50" gradientUnits="userSpaceOnUse">
<stop stop-color="#181D27" stop-opacity="0.3"/>
<stop offset="1" stop-color="#181D27" stop-opacity="0.08"/>
</linearGradient>
<linearGradient id="paint1_linear_2921_111016" x1="17.6349" y1="19.0549" x2="48.4723" y2="55.1219" gradientUnits="userSpaceOnUse">
<stop stop-color="#181D27" stop-opacity="0.8"/>
<stop offset="1" stop-color="#181D27" stop-opacity="0"/>
</linearGradient>
<linearGradient id="paint2_linear_2921_111016" x1="17.6349" y1="19.0549" x2="48.4723" y2="55.1219" gradientUnits="userSpaceOnUse">
<stop stop-color="#181D27" stop-opacity="0.8"/>
<stop offset="1" stop-color="#181D27" stop-opacity="0"/>
</linearGradient>
</defs>
</svg>
