<svg width="35" height="36" viewBox="0 0 35 36" fill="none" xmlns="http://www.w3.org/2000/svg">
<path fill-rule="evenodd" clip-rule="evenodd" d="M8.75359 20.5787C8.06182 17.8238 9.59382 14.9918 12.1759 14.2535C14.758 13.5153 17.4116 15.1505 18.1034 17.9054C18.7952 20.6603 17.2633 23.4923 14.6812 24.2306C12.0995 24.9688 9.44546 23.3341 8.75359 20.5787ZM14.8966 20.7335C15.0083 20.7016 15.1091 20.6266 15.1751 20.5137C15.3129 20.2771 15.2454 19.9664 15.0244 19.819L13.8896 19.0641L14.461 17.9632C14.5872 17.7201 14.5045 17.4137 14.2766 17.2787C14.0492 17.1443 13.7616 17.2321 13.635 17.4755L13.0873 18.5307L12.0165 17.8183C11.7952 17.671 11.504 17.743 11.366 17.9792C11.228 18.2155 11.2955 18.5261 11.5169 18.6734L12.629 19.4133L11.9175 20.7841C11.7914 21.0273 11.8736 21.3339 12.102 21.4688C12.213 21.5345 12.3388 21.5473 12.4528 21.5147C12.5719 21.4806 12.679 21.3969 12.7436 21.2723L13.4313 19.9471L14.5244 20.6743C14.6399 20.7513 14.7748 20.7684 14.8966 20.7335Z" fill="#1A1C21"/>
<path fill-rule="evenodd" clip-rule="evenodd" d="M23.4813 11.0211C20.8992 11.7593 19.3672 14.5913 20.0589 17.3462C20.7508 20.1016 23.4048 21.7363 25.9865 20.9981C28.5686 20.2598 30.1005 17.4279 29.4087 14.6729C28.717 11.918 26.0633 10.2828 23.4813 11.0211ZM26.4803 17.2808C26.4144 17.3937 26.3136 17.4687 26.2019 17.5007C26.08 17.5355 25.9452 17.5184 25.8297 17.4414L24.7366 16.7147L24.049 18.0399C23.9844 18.1645 23.8773 18.2482 23.7581 18.2822C23.6442 18.3148 23.5184 18.302 23.4073 18.2363C23.179 18.1014 23.0968 17.7949 23.2229 17.5517L23.9343 16.1808L22.8223 15.4409C22.6009 15.2937 22.5333 14.983 22.6713 14.7468C22.8093 14.5106 23.1006 14.4385 23.3219 14.5858L24.3927 15.2982L24.9404 14.243C25.0669 13.9997 25.3545 13.9119 25.5819 14.0462C25.8099 14.1812 25.8925 14.4876 25.7663 14.7307L25.195 15.8316L26.3298 16.5865C26.5508 16.7339 26.6182 17.0447 26.4803 17.2808Z" fill="#1A1C21"/>
<path d="M21.8266 22.6949C21.9907 23.3487 21.4498 24.0715 20.6183 24.3092C19.7869 24.5469 18.9798 24.2097 18.8156 23.5558C18.6514 22.902 19.1924 22.1793 20.0238 21.9415C20.8552 21.7038 21.6624 22.0411 21.8266 22.6949Z" fill="#1A1C21"/>
<path fill-rule="evenodd" clip-rule="evenodd" d="M7.40606 9.78411C6.6052 8.04407 4.74248 7.09116 2.92101 7.61196C0.849603 8.20423 -0.379762 10.4765 0.175246 12.6867C0.690574 14.739 2.56258 16.0134 4.48557 15.7118C3.82545 18.2403 3.76761 20.9519 4.4391 23.6261C6.53643 31.9785 14.9664 36.8516 23.231 34.4885C31.4956 32.1255 36.5128 23.4075 34.4155 15.0551C33.744 12.3809 32.4234 10.0635 30.6669 8.22589C32.4734 7.46101 33.4972 5.35865 32.9819 3.30651C32.4273 1.09613 30.2978 -0.215736 28.2262 0.376609C26.4048 0.897383 25.2382 2.71639 25.3598 4.65048C22.3792 3.46786 18.9877 3.23077 15.6235 4.19266C12.2593 5.15458 9.43328 7.16947 7.40606 9.78411ZM5.57076 23.3025C3.64061 15.6158 8.28654 7.58477 15.9268 5.40024C23.5671 3.21569 31.3537 7.69199 33.2838 15.3786C35.214 23.0654 30.5684 31.0963 22.9277 33.281C15.2871 35.4656 7.50093 30.9892 5.57076 23.3025Z" fill="#1A1C21"/>
</svg>
