<svg width="40" height="40" viewBox="0 0 40 40" fill="none" xmlns="http://www.w3.org/2000/svg">
<path d="M7.52333 7.80738C9.36071 5.53163 11.5613 3.45825 14.2561 2.32075C16.9508 1.18325 20.2046 1.10113 22.698 2.63025C24.332 3.63238 25.6023 5.49738 25.2878 7.38825C24.8976 9.735 22.4218 11.0508 20.2071 11.9195C16.8977 13.2175 13.5018 14.3209 10.3267 15.9196C7.1517 17.5184 4.56033 20.0925 2.59308 23.0533C1.07833 25.3331 0.248457 27.3541 0.120707 30.5001C-0.615543 22.9134 2.03646 14.6033 7.52333 7.80738Z" fill="#2C6000"/>
<path d="M14.3911 39.4745C11.5089 38.9757 8.62707 38.0612 6.3227 36.2599C4.01832 34.4585 2.36407 31.6552 2.4877 28.733C2.5687 26.8179 3.58057 24.8009 5.3857 24.1561C7.62607 23.3559 9.9797 24.8791 11.8158 26.392C14.5594 28.6525 17.1749 31.0831 20.1159 33.08C23.0569 35.0767 26.5663 36.0891 30.1102 36.3682C32.8389 36.5831 35.0084 36.3254 37.8194 34.907C31.5484 39.2399 22.9976 40.9639 14.3911 39.4745Z" fill="#2C6000"/>
<path d="M38.3756 18.0057C39.3847 20.7511 40.0336 23.7041 39.6258 26.6005C39.2179 29.4969 37.6174 32.331 35.0248 33.6851C33.3258 34.5725 31.0731 34.7048 29.6122 33.4639C27.7989 31.9237 27.9413 29.1239 28.3334 26.7772C28.9193 23.271 29.7164 19.7905 29.9753 16.2451C30.2341 12.6997 29.3562 9.15425 27.8259 5.94575C26.6477 3.47513 25.3397 1.72525 22.7058 0C29.5936 3.26425 35.3622 9.80762 38.3756 18.0057Z" fill="#2C6000"/>
</svg>
