<svg width="64" height="64" viewBox="0 0 64 64" fill="none" xmlns="http://www.w3.org/2000/svg">
<path d="M2 16C2 8.26801 8.26801 2 16 2H48C55.732 2 62 8.26801 62 16V48C62 55.732 55.732 62 48 62H16C8.26801 62 2 55.732 2 48V16Z" fill="black" fill-opacity="0.1"/>
<path d="M2 16C2 8.26801 8.26801 2 16 2H48C55.732 2 62 8.26801 62 16V48C62 55.732 55.732 62 48 62H16C8.26801 62 2 55.732 2 48V16Z" stroke="url(#paint0_linear_2024_7482)" stroke-width="4"/>
<path d="M22.1335 28.1814C21.8336 27.9672 21.6836 27.8601 21.5529 27.8462C21.3574 27.8254 21.1614 27.9262 21.0647 28.0974C21 28.2119 21 28.3942 21 28.7587V35.2413C21 36.0463 21 36.7106 21.0442 37.2518C21.0901 37.8139 21.1887 38.3306 21.436 38.816C21.8195 39.5686 22.4314 40.1805 23.184 40.564C23.6694 40.8113 24.1861 40.9099 24.7482 40.9558C25.2894 41 25.9537 41 26.7587 41H37.2413C38.0463 41 38.7106 41 39.2518 40.9558C39.8139 40.9099 40.3306 40.8113 40.816 40.564C41.5686 40.1805 42.1805 39.5686 42.564 38.816C42.8113 38.3306 42.9099 37.8139 42.9558 37.2518C43 36.7106 43 36.0463 43 35.2413V28.7587C43 28.58 43 28.4907 42.9836 28.4283C42.9096 28.1463 42.603 27.9856 42.329 28.0853C42.2684 28.1074 42.194 28.1589 42.0453 28.2618L34.3032 33.6219C33.7542 34.0032 33.2722 34.3379 32.7247 34.4706C32.2458 34.5867 31.7456 34.583 31.2685 34.4599C30.7229 34.3191 30.2459 33.9774 29.7026 33.5881L22.1335 28.1814Z" fill="url(#paint1_linear_2024_7482)"/>
<path d="M42.1328 25.7687C42.3174 25.6409 42.4097 25.577 42.4664 25.4742C42.5104 25.3944 42.5356 25.268 42.5255 25.1775C42.5125 25.0608 42.463 24.9838 42.3638 24.8297C41.9839 24.2396 41.4373 23.7526 40.816 23.436C40.3306 23.1887 39.8139 23.0901 39.2518 23.0442C38.7106 23 38.0463 23 37.2413 23H26.7587C25.9537 23 25.2894 23 24.7482 23.0442C24.1861 23.0901 23.6694 23.1887 23.184 23.436C22.625 23.7208 22.1418 24.1326 21.7744 24.6333C21.6588 24.7909 21.601 24.8697 21.5819 24.9892C21.567 25.0827 21.5878 25.2126 21.6312 25.2967C21.6866 25.4044 21.7827 25.473 21.9749 25.6103L30.75 31.8783C31.4773 32.3977 31.6316 32.4881 31.7681 32.5233C31.9272 32.5644 32.0939 32.5656 32.2535 32.5269C32.3906 32.4937 32.5463 32.4056 33.281 31.8969L42.1328 25.7687Z" fill="url(#paint2_linear_2024_7482)"/>
<defs>
<linearGradient id="paint0_linear_2024_7482" x1="32" y1="2.46154" x2="32" y2="61.5385" gradientUnits="userSpaceOnUse">
<stop stop-color="#181D27" stop-opacity="0.3"/>
<stop offset="1" stop-color="#181D27" stop-opacity="0.08"/>
</linearGradient>
<linearGradient id="paint1_linear_2024_7482" x1="21.9619" y1="24.5" x2="54.5507" y2="66.8506" gradientUnits="userSpaceOnUse">
<stop stop-color="#181D27" stop-opacity="0.8"/>
<stop offset="1" stop-color="#181D27" stop-opacity="0"/>
</linearGradient>
<linearGradient id="paint2_linear_2024_7482" x1="21.9619" y1="24.5" x2="54.5507" y2="66.8506" gradientUnits="userSpaceOnUse">
<stop stop-color="#181D27" stop-opacity="0.8"/>
<stop offset="1" stop-color="#181D27" stop-opacity="0"/>
</linearGradient>
</defs>
</svg>
