<svg width="20" height="20" viewBox="0 0 20 20" fill="none" xmlns="http://www.w3.org/2000/svg">
<g clip-path="url(#clip0_3428_233655)">
<path d="M16.6665 10.0003C16.6665 13.6822 13.6817 16.667 9.99984 16.667M16.6665 10.0003C16.6665 6.31843 13.6817 3.33366 9.99984 3.33366M16.6665 10.0003H18.3332M9.99984 16.667C6.31794 16.667 3.33317 13.6822 3.33317 10.0003M9.99984 16.667V18.3337M3.33317 10.0003C3.33317 6.31843 6.31794 3.33366 9.99984 3.33366M3.33317 10.0003H1.6665M9.99984 3.33366V1.66699M12.4998 10.0003C12.4998 11.381 11.3805 12.5003 9.99984 12.5003C8.61913 12.5003 7.49984 11.381 7.49984 10.0003C7.49984 8.61961 8.61913 7.50033 9.99984 7.50033C11.3805 7.50033 12.4998 8.61961 12.4998 10.0003Z" stroke="#717680" stroke-width="1.66667" stroke-linecap="round" stroke-linejoin="round"/>
</g>
<defs>
<clipPath id="clip0_3428_233655">
<rect width="20" height="20" fill="white"/>
</clipPath>
</defs>
</svg>
