<svg width="20" height="20" viewBox="0 0 20 20" fill="none" xmlns="http://www.w3.org/2000/svg">
<path d="M10.8334 15.8337H14.4119C15.9663 15.8337 16.7434 15.8337 17.1847 15.5081C17.5694 15.2241 17.8136 14.7886 17.8553 14.3123C17.9031 13.766 17.4979 13.1028 16.6873 11.7765L15.8566 10.4171M5.10853 8.83809L3.31281 11.7765C2.50231 13.1028 2.09706 13.766 2.14485 14.3123C2.18652 14.7886 2.43076 15.2241 2.81547 15.5081C3.25674 15.8337 4.0339 15.8337 5.58823 15.8337H7.08341M14.0742 7.5004L12.2755 4.55714C11.5232 3.32606 11.147 2.71052 10.6627 2.50068C10.24 2.31748 9.7602 2.31748 9.33742 2.50068C8.85315 2.71052 8.47699 3.32606 7.72466 4.55715L6.87481 5.94781M15.0001 4.16712L14.085 7.58219L10.67 6.66712M1.66675 9.66546L5.08181 8.7504L5.99688 12.1655M12.9167 18.3337L10.4167 15.8337L12.9167 13.3337" stroke="black" stroke-width="2" stroke-linecap="round" stroke-linejoin="round"/>
</svg>
