<svg width="18" height="18" viewBox="0 0 18 18" fill="none" xmlns="http://www.w3.org/2000/svg">
<g clip-path="url(#clip0_3059_44370)">
<path d="M15.9078 11.9174C15.4307 13.0458 14.6844 14.0401 13.7342 14.8134C12.784 15.5867 11.6589 16.1155 10.4571 16.3535C9.25538 16.5915 8.01362 16.5315 6.84041 16.1788C5.6672 15.826 4.59827 15.1912 3.72707 14.3299C2.85586 13.4686 2.20891 12.407 1.84278 11.2379C1.47664 10.0688 1.40247 8.82779 1.62675 7.6234C1.85103 6.41901 2.36692 5.2879 3.12934 4.32895C3.89175 3.37 4.87746 2.61242 6.0003 2.12243M15.9294 6.1298C16.2296 6.85465 16.4138 7.62095 16.4763 8.40056C16.4918 8.59316 16.4995 8.68946 16.4612 8.77621C16.4293 8.84867 16.366 8.91724 16.2963 8.95487C16.2129 8.99993 16.1087 8.99993 15.9003 8.99993H9.6003C9.39028 8.99993 9.28527 8.99993 9.20506 8.95906C9.13449 8.9231 9.07713 8.86574 9.04117 8.79518C9.0003 8.71496 9.0003 8.60995 9.0003 8.39993V2.09993C9.0003 1.89153 9.0003 1.78733 9.04536 1.70392C9.08299 1.63424 9.15156 1.57095 9.22402 1.539C9.31077 1.50076 9.40707 1.50848 9.59967 1.52392C10.3793 1.58642 11.1456 1.77059 11.8704 2.07083C12.7804 2.44774 13.6072 3.00019 14.3036 3.69663C15 4.39307 15.5525 5.21986 15.9294 6.1298Z" stroke="currentColor" stroke-width="1.45" stroke-linecap="round" stroke-linejoin="round"/>
</g>
<defs>
<clipPath id="clip0_3059_44370">
<rect width="18" height="18" fill="white"/>
</clipPath>
</defs>
</svg>
