<svg width="64" height="64" viewBox="0 0 64 64" fill="none" xmlns="http://www.w3.org/2000/svg">
<path d="M2 16C2 8.26801 8.26801 2 16 2H48C55.732 2 62 8.26801 62 16V48C62 55.732 55.732 62 48 62H16C8.26801 62 2 55.732 2 48V16Z" fill="black" fill-opacity="0.1"/>
<path d="M2 16C2 8.26801 8.26801 2 16 2H48C55.732 2 62 8.26801 62 16V48C62 55.732 55.732 62 48 62H16C8.26801 62 2 55.732 2 48V16Z" stroke="url(#paint0_linear_2012_2086)" stroke-width="4"/>
<path fill-rule="evenodd" clip-rule="evenodd" d="M26 28C26 24.6863 28.6863 22 32 22C35.3137 22 38 24.6863 38 28V29.1503C38.2826 29.2123 38.5539 29.3024 38.816 29.436C39.5686 29.8195 40.1805 30.4314 40.564 31.184C40.8113 31.6694 40.9099 32.1861 40.9558 32.7482C41 33.2894 41 33.9537 41 34.7587V36.2413C41 37.0463 41 37.7106 40.9558 38.2518C40.9099 38.8139 40.8113 39.3306 40.564 39.816C40.1805 40.5686 39.5686 41.1805 38.816 41.564C38.3306 41.8113 37.8139 41.9099 37.2518 41.9558C36.7106 42 36.0463 42 35.2413 42H28.7587C27.9537 42 27.2894 42 26.7482 41.9558C26.1861 41.9099 25.6694 41.8113 25.184 41.564C24.4314 41.1805 23.8195 40.5686 23.436 39.816C23.1887 39.3306 23.0901 38.8139 23.0442 38.2518C23 37.7106 23 37.0463 23 36.2413V34.7587C23 33.9537 23 33.2894 23.0442 32.7482C23.0901 32.1861 23.1887 31.6694 23.436 31.184C23.8195 30.4314 24.4314 29.8195 25.184 29.436C25.4461 29.3024 25.7174 29.2123 26 29.1503V28ZM36 28V29.0016H28V28C28 25.7909 29.7909 24 32 24C34.2091 24 36 25.7909 36 28ZM33 34.5C33 33.9477 32.5523 33.5 32 33.5C31.4477 33.5 31 33.9477 31 34.5V36.5C31 37.0523 31.4477 37.5 32 37.5C32.5523 37.5 33 37.0523 33 36.5V34.5Z" fill="url(#paint1_linear_2012_2086)"/>
<defs>
<linearGradient id="paint0_linear_2012_2086" x1="32" y1="2.46154" x2="32" y2="61.5385" gradientUnits="userSpaceOnUse">
<stop stop-color="#181D27" stop-opacity="0.3"/>
<stop offset="1" stop-color="#181D27" stop-opacity="0.08"/>
</linearGradient>
<linearGradient id="paint1_linear_2012_2086" x1="23.787" y1="23.6666" x2="61.2106" y2="59.4786" gradientUnits="userSpaceOnUse">
<stop stop-color="#181D27" stop-opacity="0.8"/>
<stop offset="1" stop-color="#181D27" stop-opacity="0"/>
</linearGradient>
</defs>
</svg>
