<svg width="20" height="20" viewBox="0 0 20 20" fill="none" xmlns="http://www.w3.org/2000/svg">
<g clip-path="url(#clip0_3428_233771)">
<path d="M18.3337 10.0979C18.3337 5.44166 14.559 1.66699 9.90274 1.66699C6.12356 1.66699 2.92513 4.15353 1.85426 7.57983C1.78567 7.79931 1.75137 7.90905 1.7546 8.04628C1.75724 8.15786 1.79115 8.29571 1.8406 8.39578C1.9014 8.51884 1.99529 8.61272 2.18305 8.80048L11.2006 17.8176C11.3883 18.0053 11.4822 18.0992 11.6053 18.16C11.7053 18.2094 11.8432 18.2434 11.9548 18.246C12.092 18.2492 12.2017 18.2149 12.4212 18.1463C15.8473 17.0753 18.3337 13.877 18.3337 10.0979Z" stroke="#717680" stroke-width="1.66667" stroke-linecap="round" stroke-linejoin="round"/>
<path d="M2.87217 8.11207C3.07259 8.09782 3.27494 8.09057 3.47899 8.09057C8.13528 8.09057 11.9099 11.8652 11.9099 16.5215C11.9099 16.7256 11.9027 16.9279 11.8884 17.1283C11.8635 17.4785 11.8511 17.6536 11.749 17.7617C11.6661 17.8495 11.5246 17.9023 11.4045 17.8903C11.2565 17.8755 11.122 17.7409 10.8529 17.4718L2.5287 9.14765C2.25959 8.87854 2.12504 8.74398 2.11022 8.59603C2.09818 8.47586 2.15097 8.3344 2.2388 8.2515C2.34693 8.14943 2.52201 8.13698 2.87217 8.11207Z" stroke="#717680" stroke-width="1.66667" stroke-linecap="round" stroke-linejoin="round"/>
</g>
<defs>
<clipPath id="clip0_3428_233771">
<rect width="20" height="20" fill="white"/>
</clipPath>
</defs>
</svg>
