<svg width="156" height="105" viewBox="0 0 156 105" fill="none" xmlns="http://www.w3.org/2000/svg">
<g filter="url(#filter0_dd_2844_68590)">
<g clip-path="url(#clip0_2844_68590)">
<path d="M3 10.4833C3 6.3504 6.35039 3 10.4833 3H144.85C148.983 3 152.333 6.35039 152.333 10.4833V94.5167C152.333 98.6496 148.983 102 144.85 102H10.4833C6.35039 102 3 98.6496 3 94.5167V10.4833Z" fill="#F5F5F5"/>
<g clip-path="url(#clip1_2844_68590)">
<path d="M3 10.4814C3 6.34844 6.35039 2.99805 10.4833 2.99805H144.85C148.983 2.99805 152.333 6.34844 152.333 10.4814V94.5147C152.333 98.6477 148.983 101.998 144.85 101.998H10.4833C6.35039 101.998 3 98.6477 3 94.5147V10.4814Z" fill="#F5F5F5"/>
<rect width="88.125" height="0.933338" transform="translate(141.6 91.1191) rotate(-90)" fill="#E9EAEB"/>
<g clip-path="url(#clip2_2844_68590)">
<rect x="11.96" y="11.998" width="131.413" height="81" rx="3.74166" fill="white"/>
<mask id="path-6-inside-1_2844_68590" fill="white">
<path d="M11.96 15.7397C11.96 13.6732 13.6352 11.998 15.7017 11.998H139.632C141.698 11.998 143.373 13.6732 143.373 15.7397V19.9668H11.96V15.7397Z"/>
</mask>
<path d="M11.96 15.7397C11.96 13.6732 13.6352 11.998 15.7017 11.998H139.632C141.698 11.998 143.373 13.6732 143.373 15.7397V19.9668H11.96V15.7397Z" fill="#FAFAFA"/>
<path d="M11.96 11.998H143.373H11.96ZM143.373 20.4345H11.96V19.4991H143.373V20.4345ZM11.96 19.9668V11.998V19.9668ZM143.373 11.998V19.9668V11.998Z" fill="#E9EAEB" mask="url(#path-6-inside-1_2844_68590)"/>
<g filter="url(#filter1_i_2844_68590)">
<ellipse cx="16.6267" cy="16.2148" rx="1.4" ry="1.40625" fill="#EE6A5F"/>
</g>
<path d="M17.9682 16.2148C17.9682 16.9595 17.3673 17.5626 16.6267 17.5626C15.886 17.5626 15.2851 16.9595 15.2851 16.2148C15.2851 15.4702 15.886 14.8671 16.6267 14.8671C17.3673 14.8671 17.9682 15.4702 17.9682 16.2148Z" stroke="#CE5347" stroke-width="0.116927"/>
<g filter="url(#filter2_i_2844_68590)">
<ellipse cx="21.2975" cy="16.2148" rx="1.4" ry="1.40625" fill="#F5BD4F"/>
</g>
<path d="M22.6391 16.2148C22.6391 16.9595 22.0382 17.5626 21.2975 17.5626C20.5569 17.5626 19.956 16.9595 19.956 16.2148C19.956 15.4702 20.5569 14.8671 21.2975 14.8671C22.0382 14.8671 22.6391 15.4702 22.6391 16.2148Z" stroke="#D6A243" stroke-width="0.116927"/>
<g filter="url(#filter3_i_2844_68590)">
<ellipse cx="25.9684" cy="16.2148" rx="1.4" ry="1.40625" fill="#61C454"/>
</g>
<path d="M27.3099 16.2148C27.3099 16.9595 26.709 17.5626 25.9684 17.5626C25.2277 17.5626 24.6268 16.9595 24.6268 16.2148C24.6268 15.4702 25.2277 14.8671 25.9684 14.8671C26.709 14.8671 27.3099 15.4702 27.3099 16.2148Z" stroke="#58A942" stroke-width="0.116927"/>
<rect x="50.2267" y="40.3594" width="87.7333" height="33.75" rx="2.80624" fill="#FAFAFA"/>
<mask id="mask0_2844_68590" style="mask-type:alpha" maskUnits="userSpaceOnUse" x="54" y="45" width="80" height="26">
<rect width="78.4" height="24.375" transform="translate(54.8933 45.9883)" fill="url(#paint0_linear_2844_68590)"/>
</mask>
<g mask="url(#mask0_2844_68590)">
<path opacity="0.1" d="M71.6645 62.7192L63.3109 65.3183C63.2956 65.3231 63.2799 65.3262 63.264 65.3278L55.1046 66.1201C54.9847 66.1317 54.8933 66.2325 54.8933 66.3529V68.0161C54.8933 68.1453 54.998 68.25 55.1272 68.25H133.059C133.189 68.25 133.293 68.1453 133.293 68.0161V49.8617C133.293 49.7325 133.189 49.6278 133.059 49.6278H130.533C130.507 49.6278 130.481 49.6234 130.456 49.6147L122.189 46.7211C122.128 46.6997 122.061 46.7046 122.003 46.7348L113.726 51.081C113.704 51.0923 113.681 51.1001 113.657 51.1043L105.324 52.5628C105.304 52.5664 105.284 52.5726 105.265 52.5813L96.96 56.4575C96.9166 56.4778 96.868 56.4842 96.8208 56.4759L88.5469 55.0278C88.5116 55.0217 88.4754 55.0237 88.4411 55.0337L80.1243 57.4597C80.1037 57.4657 80.0841 57.4745 80.066 57.4858L71.7189 62.6943C71.7019 62.7049 71.6836 62.7132 71.6645 62.7192Z" fill="#079455"/>
</g>
<path d="M54.8934 66.1406L63.2641 65.3278C63.28 65.3262 63.2957 65.3231 63.3109 65.3183L71.6646 62.7192C71.6837 62.7132 71.702 62.7049 71.7189 62.6943L80.066 57.4858C80.0842 57.4745 80.1038 57.4657 80.1243 57.4597L88.4412 55.0337C88.4755 55.0237 88.5117 55.0217 88.547 55.0278L96.8209 56.4759C96.8681 56.4842 96.9167 56.4778 96.9601 56.4575L105.265 52.5813C105.284 52.5726 105.304 52.5664 105.324 52.5628L113.657 51.1043C113.681 51.1001 113.704 51.0923 113.726 51.081L122.003 46.7348C122.061 46.7046 122.128 46.6997 122.189 46.7211L130.456 49.6147C130.481 49.6234 130.507 49.6278 130.533 49.6278H133.293" stroke="#2C6000" stroke-width="0.467707" stroke-linecap="round" stroke-linejoin="round"/>
<path d="M50.2267 80.6656C50.2267 79.1158 51.4831 77.8594 53.0329 77.8594H135.9C137.45 77.8594 138.707 79.1158 138.707 80.6656V108.803C138.707 110.353 137.45 111.609 135.9 111.609H53.0329C51.4831 111.609 50.2267 110.353 50.2267 108.803V80.6656Z" fill="#FAFAFA"/>
<rect x="50.2267" y="33.7949" width="48.5333" height="2.8125" rx="0.935414" fill="#F5F5F5"/>
<rect x="50.4133" y="24.373" width="39.5733" height="6" rx="0.935414" fill="#E9EAEB"/>
<rect x="105.76" y="24.6562" width="14.9307" height="5.15625" rx="1.40312" fill="#F5F5F5"/>
<rect x="123.029" y="24.6562" width="14.9307" height="5.15625" rx="1.40312" fill="#7F56D9"/>
<mask id="path-22-inside-2_2844_68590" fill="white">
<path d="M11.96 19.9688H45.56V109.5H11.96V19.9688Z"/>
</mask>
<path d="M45.3262 19.9688V109.5H45.7939V19.9688H45.3262Z" fill="#E9EAEB" mask="url(#path-22-inside-2_2844_68590)"/>
<rect x="16.8133" y="25.127" width="14.9333" height="3" rx="0.935414" fill="#E9EAEB"/>
<rect x="17" y="84" width="24" height="5" rx="0.935414" fill="#F5F5F5"/>
<rect x="16.6266" y="34.0332" width="20.5333" height="3.75" rx="0.935414" fill="#E9EAEB"/>
<rect x="16.6266" y="40.5898" width="20.5333" height="3.75" rx="0.935414" fill="#F5F5F5"/>
<rect x="16.6266" y="47.1465" width="20.5333" height="3.75" rx="0.935414" fill="#F5F5F5"/>
<rect x="16.6266" y="53.7012" width="20.5333" height="3.75" rx="0.935414" fill="#F5F5F5"/>
<rect x="16.6266" y="60.2578" width="20.5333" height="3.75" rx="0.935414" fill="#F5F5F5"/>
<rect x="16.6266" y="66.8145" width="20.5333" height="3.75" rx="0.935414" fill="#F5F5F5"/>
</g>
<rect x="12.1939" y="12.2319" width="130.946" height="80.5323" rx="3.5078" stroke="#D5D7DA" stroke-width="0.467707"/>
</g>
<path d="M3.37417 10.4814C3.37417 6.55509 6.55704 3.37221 10.4833 3.37221H144.85C148.776 3.37221 151.959 6.55509 151.959 10.4814V94.5147C151.959 98.441 148.776 101.624 144.85 101.624H10.4833C6.55704 101.624 3.37417 98.441 3.37417 94.5147V10.4814Z" stroke="#D5D7DA" stroke-width="0.748332"/>
<g clip-path="url(#clip3_2844_68590)">
<mask id="path-32-inside-3_2844_68590" fill="white">
<path d="M77.6666 2.99805H144.85C148.983 2.99805 152.333 6.34844 152.333 10.4814V94.5147C152.333 98.6477 148.983 101.998 144.85 101.998H77.6666V2.99805Z"/>
</mask>
<path d="M77.6666 2.99805H144.85C148.983 2.99805 152.333 6.34844 152.333 10.4814V94.5147C152.333 98.6477 148.983 101.998 144.85 101.998H77.6666V2.99805Z" fill="#22262F"/>
<g clip-path="url(#clip4_2844_68590)">
<rect x="12.7066" y="11.998" width="130.667" height="81" rx="3.74166" fill="#0C0E12"/>
<mask id="path-36-inside-4_2844_68590" fill="white">
<path d="M12.7066 15.7397C12.7066 13.6732 14.3818 11.998 16.4483 11.998H139.632C141.698 11.998 143.373 13.6732 143.373 15.7397V19.9668H12.7066V15.7397Z"/>
</mask>
<path d="M12.7066 15.7397C12.7066 13.6732 14.3818 11.998 16.4483 11.998H139.632C141.698 11.998 143.373 13.6732 143.373 15.7397V19.9668H12.7066V15.7397Z" fill="#13161B"/>
<path d="M12.7066 11.998H143.373H12.7066ZM143.373 20.4345H12.7066V19.4991H143.373V20.4345ZM12.7066 19.9668V11.998V19.9668ZM143.373 11.998V19.9668V11.998Z" fill="#373A41" mask="url(#path-36-inside-4_2844_68590)"/>
<rect x="50.9733" y="40.3594" width="87.7333" height="33.75" rx="2.80624" fill="#13161B"/>
<mask id="mask1_2844_68590" style="mask-type:alpha" maskUnits="userSpaceOnUse" x="55" y="45" width="80" height="26">
<rect width="78.4" height="24.375" transform="translate(55.6399 45.9883)" fill="url(#paint1_linear_2844_68590)"/>
</mask>
<g mask="url(#mask1_2844_68590)">
<path opacity="0.1" d="M72.4111 62.7192L64.0575 65.3183C64.0422 65.3231 64.0265 65.3262 64.0106 65.3278L55.8511 66.1201C55.7313 66.1317 55.6399 66.2325 55.6399 66.3529V68.0161C55.6399 68.1453 55.7446 68.25 55.8737 68.25H133.806C133.935 68.25 134.04 68.1453 134.04 68.0161V49.8617C134.04 49.7325 133.935 49.6278 133.806 49.6278H131.28C131.253 49.6278 131.227 49.6234 131.202 49.6147L122.936 46.7211C122.875 46.6997 122.807 46.7046 122.75 46.7348L114.472 51.081C114.451 51.0923 114.428 51.1001 114.404 51.1043L106.07 52.5628C106.05 52.5664 106.03 52.5726 106.012 52.5813L97.7066 56.4575C97.6632 56.4778 97.6146 56.4842 97.5674 56.4759L89.2935 55.0278C89.2582 55.0217 89.222 55.0237 89.1877 55.0337L80.8708 57.4597C80.8503 57.4657 80.8307 57.4745 80.8125 57.4858L72.4655 62.6943C72.4485 62.7049 72.4302 62.7132 72.4111 62.7192Z" fill="#47CD89"/>
</g>
<path d="M55.64 66.1406L64.0107 65.3278C64.0266 65.3262 64.0423 65.3231 64.0575 65.3183L72.4112 62.7192C72.4303 62.7132 72.4485 62.7049 72.4655 62.6943L80.8126 57.4858C80.8307 57.4745 80.8504 57.4657 80.8709 57.4597L89.1877 55.0337C89.2221 55.0237 89.2583 55.0217 89.2935 55.0278L97.5674 56.4759C97.6146 56.4842 97.6632 56.4778 97.7067 56.4575L106.012 52.5813C106.031 52.5726 106.05 52.5664 106.07 52.5628L114.404 51.1043C114.428 51.1001 114.451 51.0923 114.472 51.081L122.75 46.7348C122.807 46.7046 122.875 46.6997 122.936 46.7211L131.202 49.6147C131.227 49.6234 131.253 49.6278 131.28 49.6278H134.04" stroke="#2C6000" stroke-width="0.467707" stroke-linecap="round" stroke-linejoin="round"/>
<path d="M50.9733 80.6656C50.9733 79.1158 52.2297 77.8594 53.7795 77.8594H135.9C137.45 77.8594 138.707 79.1158 138.707 80.6656V108.803C138.707 110.353 137.45 111.609 135.9 111.609H53.7795C52.2297 111.609 50.9733 110.353 50.9733 108.803V80.6656Z" fill="#13161B"/>
<rect x="50.9733" y="33.7949" width="48.5333" height="2.8125" rx="0.935414" fill="#22262F"/>
<rect x="51.1599" y="24.373" width="39.5733" height="6" rx="0.935414" fill="#373A41"/>
<rect x="106.507" y="24.6562" width="14.9307" height="5.15625" rx="1.40312" fill="#22262F"/>
<rect x="123.776" y="24.6562" width="14.9307" height="5.15625" rx="1.40312" fill="white"/>
</g>
<rect x="12.9405" y="12.2319" width="130.199" height="80.5323" rx="3.5078" stroke="#373A41" stroke-width="0.467707"/>
</g>
<path d="M77.6666 2.24972H144.85C149.396 2.24972 153.082 5.93515 153.082 10.4814L151.585 10.4814C151.585 6.76173 148.57 3.74638 144.85 3.74638H77.6666V2.24972ZM153.082 94.5147C153.082 99.0609 149.396 102.746 144.85 102.746H77.6666V101.25H144.85C148.57 101.25 151.585 98.2344 151.585 94.5147H153.082ZM77.6666 101.998V2.99805V101.998ZM144.85 2.24972C149.396 2.24972 153.082 5.93515 153.082 10.4814V94.5147C153.082 99.0609 149.396 102.746 144.85 102.746V101.25C148.57 101.25 151.585 98.2344 151.585 94.5147V10.4814C151.585 6.76173 148.57 3.74638 144.85 3.74638V2.24972Z" fill="#373A41" mask="url(#path-32-inside-3_2844_68590)"/>
</g>
</g>
<defs>
<filter id="filter0_dd_2844_68590" x="0.00667381" y="0.00667381" width="155.32" height="104.987" filterUnits="userSpaceOnUse" color-interpolation-filters="sRGB">
<feFlood flood-opacity="0" result="BackgroundImageFix"/>
<feColorMatrix in="SourceAlpha" type="matrix" values="0 0 0 0 0 0 0 0 0 0 0 0 0 0 0 0 0 0 127 0" result="hardAlpha"/>
<feMorphology radius="2.99333" operator="dilate" in="SourceAlpha" result="effect1_dropShadow_2844_68590"/>
<feOffset/>
<feComposite in2="hardAlpha" operator="out"/>
<feColorMatrix type="matrix" values="0 0 0 0 0.172549 0 0 0 0 0.376471 0 0 0 0 0 0 0 0 1 0"/>
<feBlend mode="normal" in2="BackgroundImageFix" result="effect1_dropShadow_2844_68590"/>
<feColorMatrix in="SourceAlpha" type="matrix" values="0 0 0 0 0 0 0 0 0 0 0 0 0 0 0 0 0 0 127 0" result="hardAlpha"/>
<feMorphology radius="1.49666" operator="dilate" in="SourceAlpha" result="effect2_dropShadow_2844_68590"/>
<feOffset/>
<feComposite in2="hardAlpha" operator="out"/>
<feColorMatrix type="matrix" values="0 0 0 0 1 0 0 0 0 1 0 0 0 0 1 0 0 0 1 0"/>
<feBlend mode="normal" in2="effect1_dropShadow_2844_68590" result="effect2_dropShadow_2844_68590"/>
<feBlend mode="normal" in="SourceGraphic" in2="effect2_dropShadow_2844_68590" result="shape"/>
</filter>
<filter id="filter1_i_2844_68590" x="15.2267" y="14.8086" width="2.79999" height="2.8125" filterUnits="userSpaceOnUse" color-interpolation-filters="sRGB">
<feFlood flood-opacity="0" result="BackgroundImageFix"/>
<feBlend mode="normal" in="SourceGraphic" in2="BackgroundImageFix" result="shape"/>
<feColorMatrix in="SourceAlpha" type="matrix" values="0 0 0 0 0 0 0 0 0 0 0 0 0 0 0 0 0 0 127 0" result="hardAlpha"/>
<feOffset/>
<feGaussianBlur stdDeviation="0.701561"/>
<feComposite in2="hardAlpha" operator="arithmetic" k2="-1" k3="1"/>
<feColorMatrix type="matrix" values="0 0 0 0 0.92549 0 0 0 0 0.427451 0 0 0 0 0.384314 0 0 0 1 0"/>
<feBlend mode="normal" in2="shape" result="effect1_innerShadow_2844_68590"/>
</filter>
<filter id="filter2_i_2844_68590" x="19.8975" y="14.8086" width="2.79999" height="2.8125" filterUnits="userSpaceOnUse" color-interpolation-filters="sRGB">
<feFlood flood-opacity="0" result="BackgroundImageFix"/>
<feBlend mode="normal" in="SourceGraphic" in2="BackgroundImageFix" result="shape"/>
<feColorMatrix in="SourceAlpha" type="matrix" values="0 0 0 0 0 0 0 0 0 0 0 0 0 0 0 0 0 0 127 0" result="hardAlpha"/>
<feOffset/>
<feGaussianBlur stdDeviation="0.701561"/>
<feComposite in2="hardAlpha" operator="arithmetic" k2="-1" k3="1"/>
<feColorMatrix type="matrix" values="0 0 0 0 0.960784 0 0 0 0 0.768627 0 0 0 0 0.317647 0 0 0 1 0"/>
<feBlend mode="normal" in2="shape" result="effect1_innerShadow_2844_68590"/>
</filter>
<filter id="filter3_i_2844_68590" x="24.5684" y="14.8086" width="2.79999" height="2.8125" filterUnits="userSpaceOnUse" color-interpolation-filters="sRGB">
<feFlood flood-opacity="0" result="BackgroundImageFix"/>
<feBlend mode="normal" in="SourceGraphic" in2="BackgroundImageFix" result="shape"/>
<feColorMatrix in="SourceAlpha" type="matrix" values="0 0 0 0 0 0 0 0 0 0 0 0 0 0 0 0 0 0 127 0" result="hardAlpha"/>
<feOffset/>
<feGaussianBlur stdDeviation="0.701561"/>
<feComposite in2="hardAlpha" operator="arithmetic" k2="-1" k3="1"/>
<feColorMatrix type="matrix" values="0 0 0 0 0.407843 0 0 0 0 0.8 0 0 0 0 0.345098 0 0 0 1 0"/>
<feBlend mode="normal" in2="shape" result="effect1_innerShadow_2844_68590"/>
</filter>
<linearGradient id="paint0_linear_2844_68590" x1="39.2" y1="0" x2="39.2" y2="24.375" gradientUnits="userSpaceOnUse">
<stop/>
<stop offset="1" stop-opacity="0"/>
</linearGradient>
<linearGradient id="paint1_linear_2844_68590" x1="39.2" y1="0" x2="39.2" y2="24.375" gradientUnits="userSpaceOnUse">
<stop/>
<stop offset="1" stop-opacity="0"/>
</linearGradient>
<clipPath id="clip0_2844_68590">
<path d="M3 10.4833C3 6.3504 6.35039 3 10.4833 3H144.85C148.983 3 152.333 6.35039 152.333 10.4833V94.5167C152.333 98.6496 148.983 102 144.85 102H10.4833C6.35039 102 3 98.6496 3 94.5167V10.4833Z" fill="white"/>
</clipPath>
<clipPath id="clip1_2844_68590">
<path d="M3 10.4814C3 6.34844 6.35039 2.99805 10.4833 2.99805H144.85C148.983 2.99805 152.333 6.34844 152.333 10.4814V94.5147C152.333 98.6477 148.983 101.998 144.85 101.998H10.4833C6.35039 101.998 3 98.6477 3 94.5147V10.4814Z" fill="white"/>
</clipPath>
<clipPath id="clip2_2844_68590">
<rect x="11.96" y="11.998" width="131.413" height="81" rx="3.74166" fill="white"/>
</clipPath>
<clipPath id="clip3_2844_68590">
<path d="M77.6666 2.99805H144.85C148.983 2.99805 152.333 6.34844 152.333 10.4814V94.5147C152.333 98.6477 148.983 101.998 144.85 101.998H77.6666V2.99805Z" fill="white"/>
</clipPath>
<clipPath id="clip4_2844_68590">
<rect x="12.7066" y="11.998" width="130.667" height="81" rx="3.74166" fill="white"/>
</clipPath>
</defs>
</svg>
