<svg width="20" height="20" viewBox="0 0 20 20" fill="none" xmlns="http://www.w3.org/2000/svg">
<path d="M17.5 9.16601L11.1716 2.83759C10.7392 2.40521 10.523 2.18902 10.2707 2.03442C10.047 1.89734 9.80317 1.79633 9.54808 1.73509C9.26036 1.66602 8.95462 1.66602 8.34314 1.66602L5 1.66602M2.5 7.24935L2.5 8.89478C2.5 9.30243 2.5 9.50626 2.54605 9.69807C2.58688 9.86813 2.65422 10.0307 2.7456 10.1798C2.84867 10.348 2.9928 10.4921 3.28105 10.7804L9.78105 17.2804C10.4411 17.9404 10.7711 18.2704 11.1516 18.3941C11.4864 18.5029 11.847 18.5029 12.1817 18.3941C12.5622 18.2704 12.8923 17.9404 13.5523 17.2804L15.6144 15.2183C16.2744 14.5583 16.6044 14.2283 16.7281 13.8477C16.8368 13.513 16.8368 13.1524 16.7281 12.8177C16.6044 12.4371 16.2744 12.1071 15.6144 11.4471L9.53105 5.36373C9.2428 5.07548 9.09867 4.93135 8.93048 4.82828C8.78135 4.7369 8.61878 4.66956 8.44872 4.62873C8.25691 4.58268 8.05308 4.58268 7.64543 4.58268H5.16667C4.23325 4.58268 3.76654 4.58268 3.41002 4.76434C3.09641 4.92413 2.84145 5.17909 2.68166 5.4927C2.5 5.84922 2.5 6.31593 2.5 7.24935Z" stroke="#717680" stroke-width="1.66667" stroke-linecap="round" stroke-linejoin="round"/>
</svg>
