<svg width="18" height="18" viewBox="0 0 18 18" fill="none" xmlns="http://www.w3.org/2000/svg">
<path d="M9.75018 5.25H3.90018C3.0601 5.25 2.64007 5.25 2.3192 5.41349C2.03695 5.5573 1.80748 5.78677 1.66367 6.06901C1.50018 6.38988 1.50018 6.80992 1.50018 7.65V10.35C1.50018 11.1901 1.50018 11.6101 1.66367 11.931C1.80748 12.2132 2.03695 12.4427 2.3192 12.5865C2.64007 12.75 3.0601 12.75 3.90018 12.75H9.75018M12.7502 5.25H14.1002C14.9403 5.25 15.3603 5.25 15.6812 5.41349C15.9634 5.5573 16.1929 5.78677 16.3367 6.06901C16.5002 6.38988 16.5002 6.80992 16.5002 7.65V10.35C16.5002 11.1901 16.5002 11.6101 16.3367 11.931C16.1929 12.2132 15.9634 12.4427 15.6812 12.5865C15.3603 12.75 14.9403 12.75 14.1002 12.75H12.7502M12.7502 15.75L12.7502 2.25M14.6252 2.25001L10.8752 2.25M14.6252 15.75L10.8752 15.75" stroke="#414651" stroke-width="1.5" stroke-linecap="round" stroke-linejoin="round"/>
</svg>
