<svg width="20" height="20" viewBox="0 0 20 20" fill="none" xmlns="http://www.w3.org/2000/svg">
<path d="M16.6666 12.5013C16.6666 12.0411 16.2935 11.668 15.8333 11.668C15.3731 11.668 15 12.0411 15 12.5013V14.168H13.3333C12.8731 14.168 12.5 14.5411 12.5 15.0013C12.5 15.4615 12.8731 15.8346 13.3333 15.8346H15V17.5013C15 17.9615 15.3731 18.3346 15.8333 18.3346C16.2935 18.3346 16.6666 17.9615 16.6666 17.5013V15.8346H18.3333C18.7935 15.8346 19.1666 15.4615 19.1666 15.0013C19.1666 14.5411 18.7935 14.168 18.3333 14.168H16.6666V12.5013Z" fill="url(#paint0_linear_5713_74029)"/>
<path fill-rule="evenodd" clip-rule="evenodd" d="M10.1508 11.8042C10.386 11.9241 10.5772 12.1153 10.6971 12.3505C10.8246 12.6008 10.8334 12.8743 10.8333 13.1487C10.8333 13.1552 10.8333 13.1616 10.8333 13.168C10.8333 14.3966 10.8329 15.6253 10.8333 16.8539C10.8334 16.9532 10.8334 17.0717 10.8249 17.1762C10.815 17.2972 10.7896 17.4705 10.6971 17.6521C10.5772 17.8873 10.386 18.0786 10.1508 18.1984C9.96918 18.2909 9.79586 18.3163 9.67484 18.3262C9.57041 18.3347 9.45186 18.3347 9.3526 18.3346C7.0064 18.3338 4.66019 18.3338 2.31399 18.3346C2.21461 18.3347 2.0958 18.3347 1.99111 18.3261C1.86968 18.3162 1.696 18.2906 1.51411 18.1976C1.2786 18.0772 1.08688 17.8846 0.967552 17.6486C0.875635 17.4667 0.850708 17.2935 0.841234 17.1718C0.833094 17.0672 0.833681 16.9488 0.834171 16.85C0.838468 15.984 0.812649 15.0557 1.15049 14.2401C1.57338 13.2192 2.38452 12.408 3.40547 11.9851C3.83022 11.8092 4.27879 11.7362 4.78607 11.7016C5.27941 11.668 5.88559 11.668 6.63706 11.668C7.54224 11.668 8.44742 11.6683 9.3526 11.668C9.62699 11.6679 9.90046 11.6767 10.1508 11.8042Z" fill="url(#paint1_linear_5713_74029)"/>
<path fill-rule="evenodd" clip-rule="evenodd" d="M12.1442 2.43092C12.3169 2.00431 12.8027 1.79846 13.2293 1.97115C14.7548 2.58864 15.8333 4.08469 15.8333 5.83464C15.8333 7.58458 14.7548 9.08063 13.2293 9.69812C12.8027 9.87081 12.3169 9.66496 12.1442 9.23835C11.9715 8.81174 12.1774 8.32591 12.604 8.15322C13.5217 7.78173 14.1667 6.8825 14.1667 5.83464C14.1667 4.78677 13.5217 3.88754 12.604 3.51605C12.1774 3.34336 11.9715 2.85753 12.1442 2.43092Z" fill="url(#paint2_linear_5713_74029)"/>
<path fill-rule="evenodd" clip-rule="evenodd" d="M3.74999 5.83464C3.74999 3.53345 5.61546 1.66797 7.91665 1.66797C10.2178 1.66797 12.0833 3.53345 12.0833 5.83464C12.0833 8.13582 10.2178 10.0013 7.91665 10.0013C5.61546 10.0013 3.74999 8.13582 3.74999 5.83464Z" fill="url(#paint3_linear_5713_74029)"/>
<defs>
<linearGradient id="paint0_linear_5713_74029" x1="1.63545" y1="3.05684" x2="32.4731" y2="39.1229" gradientUnits="userSpaceOnUse">
<stop stop-color="#181D27" stop-opacity="0.8"/>
<stop offset="1" stop-color="#181D27" stop-opacity="0"/>
</linearGradient>
<linearGradient id="paint1_linear_5713_74029" x1="1.63545" y1="3.05684" x2="32.4731" y2="39.1229" gradientUnits="userSpaceOnUse">
<stop stop-color="#181D27" stop-opacity="0.8"/>
<stop offset="1" stop-color="#181D27" stop-opacity="0"/>
</linearGradient>
<linearGradient id="paint2_linear_5713_74029" x1="1.63545" y1="3.05684" x2="32.4731" y2="39.1229" gradientUnits="userSpaceOnUse">
<stop stop-color="#181D27" stop-opacity="0.8"/>
<stop offset="1" stop-color="#181D27" stop-opacity="0"/>
</linearGradient>
<linearGradient id="paint3_linear_5713_74029" x1="1.63545" y1="3.05684" x2="32.4731" y2="39.1229" gradientUnits="userSpaceOnUse">
<stop stop-color="#181D27" stop-opacity="0.8"/>
<stop offset="1" stop-color="#181D27" stop-opacity="0"/>
</linearGradient>
</defs>
</svg>
