<svg width="20" height="20" viewBox="0 0 20 20" fill="none" xmlns="http://www.w3.org/2000/svg">
<path d="M16.4226 11.9106C16.0971 11.5851 15.5695 11.5851 15.2441 11.9106C14.9186 12.236 14.9186 12.7637 15.2441 13.0891L16.3215 14.1665H13.3333C12.8731 14.1665 12.5 14.5396 12.5 14.9998C12.5 15.4601 12.8731 15.8332 13.3333 15.8332H16.3215L15.2441 16.9106C14.9186 17.236 14.9186 17.7637 15.2441 18.0891C15.5695 18.4145 16.0971 18.4145 16.4226 18.0891L18.9226 15.5891C19.0788 15.4328 19.1666 15.2209 19.1666 14.9998C19.1666 14.7788 19.0788 14.5669 18.9226 14.4106L16.4226 11.9106Z" fill="url(#paint0_linear_3249_4487)"/>
<path fill-rule="evenodd" clip-rule="evenodd" d="M10.1508 11.8027C10.386 11.9226 10.5772 12.1138 10.6971 12.349C10.8246 12.5994 10.8334 12.8728 10.8333 13.1472C10.8333 13.1537 10.8333 13.1602 10.8333 13.1665C10.8333 14.3952 10.8329 15.6238 10.8333 16.8524C10.8334 16.9517 10.8334 17.0703 10.8249 17.1747C10.815 17.2957 10.7896 17.469 10.6971 17.6507C10.5772 17.8859 10.386 18.0771 10.1508 18.1969C9.96918 18.2895 9.79586 18.3148 9.67484 18.3247C9.57041 18.3333 9.45186 18.3332 9.3526 18.3332C7.0064 18.3323 4.66019 18.3323 2.31399 18.3332C2.21461 18.3332 2.0958 18.3333 1.99111 18.3247C1.86968 18.3147 1.696 18.2891 1.51411 18.1961C1.2786 18.0758 1.08688 17.8831 0.967552 17.6471C0.875635 17.4653 0.850708 17.292 0.841234 17.1703C0.833094 17.0658 0.833681 16.9473 0.834171 16.8485C0.838468 15.9825 0.812649 15.0543 1.15049 14.2387C1.57338 13.2177 2.38452 12.4066 3.40547 11.9837C3.83022 11.8077 4.27879 11.7348 4.78607 11.7002C5.27941 11.6665 5.88559 11.6665 6.63706 11.6665C7.54224 11.6665 8.44742 11.6668 9.3526 11.6665C9.62699 11.6664 9.90046 11.6752 10.1508 11.8027Z" fill="url(#paint1_linear_3249_4487)"/>
<path fill-rule="evenodd" clip-rule="evenodd" d="M12.1442 2.42946C12.3169 2.00285 12.8027 1.797 13.2293 1.96969C14.7548 2.58718 15.8333 4.08322 15.8333 5.83317C15.8333 7.58312 14.7548 9.07916 13.2293 9.69665C12.8027 9.86934 12.3169 9.6635 12.1442 9.23688C11.9715 8.81027 12.1774 8.32445 12.604 8.15176C13.5217 7.78027 14.1667 6.88104 14.1667 5.83317C14.1667 4.7853 13.5217 3.88607 12.604 3.51458C12.1774 3.3419 11.9715 2.85607 12.1442 2.42946Z" fill="url(#paint2_linear_3249_4487)"/>
<path fill-rule="evenodd" clip-rule="evenodd" d="M3.74999 5.83317C3.74999 3.53198 5.61546 1.6665 7.91665 1.6665C10.2178 1.6665 12.0833 3.53198 12.0833 5.83317C12.0833 8.13436 10.2178 9.99984 7.91665 9.99984C5.61546 9.99984 3.74999 8.13436 3.74999 5.83317Z" fill="url(#paint3_linear_3249_4487)"/>
<defs>
<linearGradient id="paint0_linear_3249_4487" x1="1.63545" y1="3.05538" x2="32.4731" y2="39.1214" gradientUnits="userSpaceOnUse">
<stop stop-color="#181D27" stop-opacity="0.8"/>
<stop offset="1" stop-color="#181D27" stop-opacity="0"/>
</linearGradient>
<linearGradient id="paint1_linear_3249_4487" x1="1.63545" y1="3.05538" x2="32.4731" y2="39.1214" gradientUnits="userSpaceOnUse">
<stop stop-color="#181D27" stop-opacity="0.8"/>
<stop offset="1" stop-color="#181D27" stop-opacity="0"/>
</linearGradient>
<linearGradient id="paint2_linear_3249_4487" x1="1.63545" y1="3.05538" x2="32.4731" y2="39.1214" gradientUnits="userSpaceOnUse">
<stop stop-color="#181D27" stop-opacity="0.8"/>
<stop offset="1" stop-color="#181D27" stop-opacity="0"/>
</linearGradient>
<linearGradient id="paint3_linear_3249_4487" x1="1.63545" y1="3.05538" x2="32.4731" y2="39.1214" gradientUnits="userSpaceOnUse">
<stop stop-color="#181D27" stop-opacity="0.8"/>
<stop offset="1" stop-color="#181D27" stop-opacity="0"/>
</linearGradient>
</defs>
</svg>
