<svg width="20" height="20" viewBox="0 0 20 20" fill="none" xmlns="http://www.w3.org/2000/svg">
<path d="M1.6665 4.99935C2.1665 5.41602 2.6665 5.83268 3.74984 5.83268C5.83317 5.83268 5.83317 4.16602 7.9165 4.16602C8.99984 4.16602 9.49984 4.58268 9.99984 4.99935C10.4998 5.41602 10.9998 5.83268 12.0832 5.83268C14.1665 5.83268 14.1665 4.16602 16.2498 4.16602C17.3332 4.16602 17.8332 4.58268 18.3332 4.99935M1.6665 14.9993C2.1665 15.416 2.6665 15.8327 3.74984 15.8327C5.83317 15.8327 5.83317 14.166 7.9165 14.166C8.99984 14.166 9.49984 14.5827 9.99984 14.9993C10.4998 15.416 10.9998 15.8327 12.0832 15.8327C14.1665 15.8327 14.1665 14.166 16.2498 14.166C17.3332 14.166 17.8332 14.5827 18.3332 14.9993M1.6665 9.99935C2.1665 10.416 2.6665 10.8327 3.74984 10.8327C5.83317 10.8327 5.83317 9.16602 7.9165 9.16602C8.99984 9.16602 9.49984 9.58268 9.99984 9.99935C10.4998 10.416 10.9998 10.8327 12.0832 10.8327C14.1665 10.8327 14.1665 9.16602 16.2498 9.16602C17.3332 9.16602 17.8332 9.58268 18.3332 9.99935" stroke="#717680" stroke-width="1.66667" stroke-linecap="round" stroke-linejoin="round"/>
</svg>
