<svg width="20" height="20" viewBox="0 0 20 20" fill="none" xmlns="http://www.w3.org/2000/svg">
<path d="M7.92449 3.88759C8.22966 3.54661 8.67316 3.33203 9.16677 3.33203C10.0872 3.33203 10.8334 4.07822 10.8334 4.9987C10.8334 5.91917 10.0872 6.66536 9.16677 6.66536H1.66677M10.4245 16.1098C10.7297 16.4508 11.1732 16.6654 11.6668 16.6654C12.5872 16.6654 13.3334 15.9192 13.3334 14.9987C13.3334 14.0782 12.5872 13.332 11.6668 13.332H1.66677M13.97 5.83203C14.4278 5.32057 15.093 4.9987 15.8334 4.9987C17.2141 4.9987 18.3334 6.11799 18.3334 7.4987C18.3334 8.87941 17.2141 9.9987 15.8334 9.9987H1.66675" stroke="#414651" stroke-width="1.66667" stroke-linecap="round" stroke-linejoin="round"/>
</svg>
