<svg width="16" height="16" viewBox="0 0 16 16" fill="none" xmlns="http://www.w3.org/2000/svg">
<path fill-rule="evenodd" clip-rule="evenodd" d="M7.99935 0.666748C3.94926 0.666748 0.666016 3.94999 0.666016 8.00008C0.666016 12.0502 3.94926 15.3334 7.99935 15.3334C12.0494 15.3334 15.3327 12.0502 15.3327 8.00008C15.3327 3.94999 12.0494 0.666748 7.99935 0.666748ZM10.4708 5.52868C10.7311 5.78903 10.7311 6.21114 10.4708 6.47149L8.94216 8.00008L10.4708 9.52868C10.7311 9.78903 10.7311 10.2111 10.4708 10.4715C10.2104 10.7318 9.78829 10.7318 9.52794 10.4715L7.99935 8.94289L6.47075 10.4715C6.2104 10.7318 5.78829 10.7318 5.52794 10.4715C5.26759 10.2111 5.26759 9.78903 5.52794 9.52868L7.05654 8.00008L5.52794 6.47149C5.26759 6.21114 5.26759 5.78903 5.52794 5.52868C5.78829 5.26833 6.2104 5.26833 6.47075 5.52868L7.99935 7.05727L9.52794 5.52868C9.78829 5.26833 10.2104 5.26833 10.4708 5.52868Z" fill="#A4A7AE"/>
</svg>
