<svg width="52" height="52" viewBox="0 0 52 52" fill="none" xmlns="http://www.w3.org/2000/svg">
<g filter="url(#filter0_dii_3825_8981)">
<path d="M2 11C2 5.47715 6.47715 1 12 1H40C45.5229 1 50 5.47715 50 11V39C50 44.5229 45.5228 49 40 49H12C6.47715 49 2 44.5228 2 39V11Z" fill="white"/>
<path d="M2.5 11C2.5 5.75329 6.75329 1.5 12 1.5H40C45.2467 1.5 49.5 5.75329 49.5 11V39C49.5 44.2467 45.2467 48.5 40 48.5H12C6.75329 48.5 2.5 44.2467 2.5 39V11Z" stroke="#E9EAEB"/>
<path fill-rule="evenodd" clip-rule="evenodd" d="M26 14C19.9249 14 15 18.9249 15 25C15 31.0751 19.9249 36 26 36C32.0751 36 37 31.0751 37 25C37 18.9249 32.0751 14 26 14ZM21.3616 25.2468L26 18.5V23.5H29.9791C30.472 23.5 30.7185 23.5 30.8528 23.6025C30.9698 23.6918 31.0415 23.8282 31.0488 23.9752C31.0572 24.144 30.9176 24.3471 30.6384 24.7532L26 31.5V26.5H22.0208C21.5279 26.5 21.2815 26.5 21.1471 26.3975C21.0301 26.3082 20.9584 26.1718 20.9511 26.0248C20.9427 25.856 21.0823 25.6529 21.3616 25.2468Z" fill="#181D27"/>
</g>
<defs>
<filter id="filter0_dii_3825_8981" x="0" y="0" width="52" height="52" filterUnits="userSpaceOnUse" color-interpolation-filters="sRGB">
<feFlood flood-opacity="0" result="BackgroundImageFix"/>
<feColorMatrix in="SourceAlpha" type="matrix" values="0 0 0 0 0 0 0 0 0 0 0 0 0 0 0 0 0 0 127 0" result="hardAlpha"/>
<feOffset dy="1"/>
<feGaussianBlur stdDeviation="1"/>
<feComposite in2="hardAlpha" operator="out"/>
<feColorMatrix type="matrix" values="0 0 0 0 0.0392157 0 0 0 0 0.0496732 0 0 0 0 0.0705882 0 0 0 0.05 0"/>
<feBlend mode="normal" in2="BackgroundImageFix" result="effect1_dropShadow_3825_8981"/>
<feBlend mode="normal" in="SourceGraphic" in2="effect1_dropShadow_3825_8981" result="shape"/>
<feColorMatrix in="SourceAlpha" type="matrix" values="0 0 0 0 0 0 0 0 0 0 0 0 0 0 0 0 0 0 127 0" result="hardAlpha"/>
<feOffset dy="-2"/>
<feComposite in2="hardAlpha" operator="arithmetic" k2="-1" k3="1"/>
<feColorMatrix type="matrix" values="0 0 0 0 0.0392157 0 0 0 0 0.0496732 0 0 0 0 0.0705882 0 0 0 0.05 0"/>
<feBlend mode="normal" in2="shape" result="effect2_innerShadow_3825_8981"/>
<feColorMatrix in="SourceAlpha" type="matrix" values="0 0 0 0 0 0 0 0 0 0 0 0 0 0 0 0 0 0 127 0" result="hardAlpha"/>
<feMorphology radius="1" operator="erode" in="SourceAlpha" result="effect3_innerShadow_3825_8981"/>
<feOffset/>
<feComposite in2="hardAlpha" operator="arithmetic" k2="-1" k3="1"/>
<feColorMatrix type="matrix" values="0 0 0 0 0.0392157 0 0 0 0 0.0496732 0 0 0 0 0.0705882 0 0 0 0.18 0"/>
<feBlend mode="normal" in2="effect2_innerShadow_3825_8981" result="effect3_innerShadow_3825_8981"/>
</filter>
</defs>
</svg>
